<svg xmlns="http://www.w3.org/2000/svg" xml:space="preserve" viewBox="0 0 100 66.09"><path fill="#5277c3" d="M87.14 30.05a90.52 90.52 0 0 0-8.26-3.42h-.16c-2.45-10.47-3.88-15.87-5.15-17.86a7.11 7.11 0 0 0-4.13-3.72c-.8-.32-7.3-3.02-10.63-4.77a2.29 2.29 0 0 0-3.18 1.04 2.29 2.29 0 0 0 1.04 3.17A165.62 165.62 0 0 0 67.7 9.4c.08 0 .08.08.16.08.62.24 1.2.71 1.42 1.35v.08c.16.4.24.87.08 1.27a2.3 2.3 0 0 1-1.03 1.5c-.55.33-1.2.49-1.82.25l-1.75-.48c-2.86-.87-6.5-2.78-10.39-4.77C46.75 4.73 37.93.2 29.75.2c-3.25 0-6.1 1.51-8.41 4.37-3.9 5-5.32 13.1-5.8 19.05a59.57 59.57 0 0 0-.24 5.31l-.47.16C5.23 33.14 0 38.62 0 44.65c0 6.12 5.47 11.67 15.48 15.73 9.28 3.72 21.5 5.71 34.52 5.71 13.01 0 25.32-2.07 34.52-5.71C94.44 56.4 100 50.85 100 44.65c0-5.39-4.2-10.14-12.86-14.59Zm-11.66 13.4c-.32.25-.72.57-1.28.8l-1.03.47c-7.14 3.26-21.9 3.66-32.77 2.3-9.21-1.1-15.72-3.95-18.25-5.8a3.44 3.44 0 0 1-1.35-2.2v-.09a3.48 3.48 0 0 1 4.83-3.73 48.65 48.65 0 0 0 14.29 3.81l1.11.16c4.2.48 8.5 1.04 12.94 1.04a47.95 47.95 0 0 0 14.44-2.15l3.65-1.2a3.72 3.72 0 0 1 4.45 1.68c1.42 2.3-.08 4.05-1.03 4.92z"/></svg>