<svg xmlns="http://www.w3.org/2000/svg" xml:space="preserve" viewBox="0 0 250 60"><path fill="#5277c3" d="M52.092 0a2.069 2.069 0 0 0-1.842 1.193 2.071 2.071 0 0 0 .94 2.871 149.62 149.62 0 0 0 9.96 4.43c.07 0 .07.07.14.07.56.22 1.09.63 1.29 1.22v.07c.14.37.21.79.07 1.15a2.078 2.078 0 0 1-.93 1.36c-.5.28-1.09.43-1.65.21l-1.58-.42c-2.58-.79-5.87-2.51-9.38-4.31-6.88-3.58-14.85-7.66-22.24-7.66-2.93 0-5.5 1.359-7.6 3.939-3.52 4.51-4.8 11.831-5.23 17.201a53.812 53.812 0 0 0-.22 4.81l-.43.14C4.72 29.923 0 34.883 0 40.333c0 5.52 4.94 10.54 13.98 14.2 8.38 3.37 19.42 5.17 31.18 5.17 11.75 0 22.87-1.871 31.18-5.161 8.96-3.6 13.98-8.619 13.98-14.209 0-4.88-3.8-9.17-11.61-13.19h-.01a81.744 81.744 0 0 0-7.45-3.09h-.15c-2.2-9.45-3.5-14.33-4.65-16.13a6.416 6.416 0 0 0-3.73-3.37c-.72-.29-6.6-2.72-9.6-4.3a2.056 2.056 0 0 0-1.028-.254zm112.107 5.82c-1.36 0-2.438.42-3.238 1.26-.76.8-1.14 1.84-1.14 3.12s.38 2.32 1.14 3.12c.8.8 1.878 1.2 3.238 1.2 1.28 0 2.321-.4 3.121-1.2.8-.8 1.2-1.84 1.2-3.12s-.4-2.32-1.2-3.12c-.8-.84-1.84-1.26-3.12-1.26zm-57 1.92v6.6h12.541V48.6h6.96V14.34h13.02v-6.6H107.2zm67.801 0v33.9c0 2.44.6 4.26 1.8 5.46 1.24 1.2 2.74 1.8 4.5 1.8.64 0 1.26-.04 1.86-.12.64-.08 1.2-.2 1.68-.36v-5.94c-.8 0-1.5-.22-2.1-.66-.6-.44-.9-1.32-.9-2.64V7.74H175zm15.3 0V48.6h5.22l.9-3.3c1.12 1.28 2.46 2.26 4.02 2.94 1.56.68 3.28 1.02 5.16 1.02 2.68 0 5.04-.64 7.08-1.92 2.04-1.32 3.62-3.12 4.74-5.4 1.12-2.32 1.68-5 1.68-8.04 0-3.04-.58-5.7-1.74-7.98-1.12-2.28-2.7-4.06-4.74-5.34-2-1.28-4.34-1.92-7.02-1.92-3.32 0-6.1 1-8.34 3V7.74h-6.96zm-37.44 10.92c-1.44 0-2.84.42-4.2 1.26-1.36.8-2.46 1.66-3.3 2.58l-.72-3.18h-5.22V48.6h6.96V28.08c.68-.88 1.62-1.52 2.82-1.92 1.2-.44 2.76-.66 4.68-.66h1.92v-6.3c-.64-.36-1.62-.54-2.94-.54zm7.86.66V48.6h6.96V19.32h-6.96zm59.46 0 11.28 25.32L224.62 60h7.2L250 19.32h-7.2l-7.74 17.28-7.68-17.28h-7.2zm-15.72 5.58c2.24 0 4.06.84 5.46 2.52 1.4 1.64 2.1 3.8 2.1 6.48 0 2.72-.7 4.92-2.1 6.6-1.4 1.68-3.22 2.52-5.46 2.52-2.24 0-4.06-.82-5.46-2.46-1.4-1.68-2.1-3.88-2.1-6.6 0-2.72.7-4.9 2.1-6.54 1.4-1.68 3.22-2.52 5.46-2.52zM21.87 31.525c.42-.002.854.081 1.28.268a43.945 43.945 0 0 0 12.9 3.441l1.01.15c3.8.43 7.68.94 11.69.94 4.42.023 8.817-.63 13.04-1.94l3.3-1.091a3.36 3.36 0 0 1 4.02 1.521c1.28 2.08-.08 3.65-.93 4.43-.3.22-.65.51-1.16.73l-.93.42c-6.45 2.95-19.78 3.3-29.6 2.08-8.32-1-14.2-3.58-16.48-5.24a3.1 3.1 0 0 1-1.22-2v-.07c-.318-1.992 1.257-3.629 3.08-3.639z"/></svg>