<?xml version="1.0" encoding="UTF-8" standalone="no"?>
<!-- Generator: Adobe Illustrator 18.0.0, SVG Export Plug-In . SVG Version: 6.00 Build 0)  -->

<svg
   version="1.1"
   id="Layer_1"
   x="0px"
   y="0px"
   viewBox="0 0 1600 500"
   enable-background="new 0 0 2800 2800"
   xml:space="preserve"
   sodipodi:docname="9 Hat Styles.svg"
   width="1600"
   height="500"
   xmlns:inkscape="http://www.inkscape.org/namespaces/inkscape"
   xmlns:sodipodi="http://sodipodi.sourceforge.net/DTD/sodipodi-0.dtd"
   xmlns="http://www.w3.org/2000/svg"
   xmlns:svg="http://www.w3.org/2000/svg"><defs
   id="defs175" /><sodipodi:namedview
   id="namedview173"
   pagecolor="#ffffff"
   bordercolor="#000000"
   borderopacity="0.25"
   inkscape:showpageshadow="2"
   inkscape:pageopacity="0.0"
   inkscape:pagecheckerboard="0"
   inkscape:deskcolor="#d1d1d1"
   showgrid="false" />


















<path
   fill="#7f5711"
   d="m 512.08625,267.24999 c 4.2,-20.8 -0.9,-41.1 -7.5,-61.9 -6.3,9.5 -13,18.9 -20,28 -4,5.2 -8.1,10.3 -12.2,15.2 -0.6,0.8 -1.3,1.5 -1.9,2.3 -2.5,3.1 -5.1,6.2 -8.1,8.9 2.8,5.3 4.7,11.1 6.6,17.2 0.2,0.6 0.4,1.2 0.5,1.8 5.3,-5.1 12.2,-8.3 20.4,-9.5 0.2,0 0.3,0 0.4,0 1.4,0 2.7,1.1 2.8,2.5 0.2,1.4 -0.7,2.5 -2,2.9 -7.2,1.8 -14.2,6.7 -19.2,13.5 0.8,3.4 1.4,6.7 1.9,9.8 0.4,2.6 0.8,5.5 0.7,8.4 20.9,-2.4 34,-21.7 37.6,-39.1 z"
   id="path46"
   style="fill:#7ebae4;fill-opacity:1" /><path
   fill="#7f5711"
   d="m 416.98625,305.54999 v 0 c 4.4,-1.6 9.6,-3.3 15.2,-4 -0.4,-2.3 -0.9,-4.7 -1.3,-7 -0.4,-2 -0.7,-4.1 -1.1,-6.2 -0.8,-4.9 -1.6,-9.9 -3,-14.5 -8.7,1.3 -17.6,1.9 -26.2,2.4 -2.5,0.2 -5,0.3 -7.5,0.5 l -5,0.3 c -4,0.3 -8,0.6 -12,0.8 -1.5,0.1 -3,0.2 -4.5,0.2 -3.7,0.2 -7.5,0.3 -11,1 -5.4,1.1 -8.2,3.3 -8.8,7.2 -0.6,3.7 -0.5,7.6 -0.3,11.5 0,1.4 0.1,2.7 0.1,4.1 l 0.1,7.3 c 0.1,8.7 0.2,17.8 0.4,26.7 v 3.1 c 0,2.1 0.1,4.1 0.1,6.2 v 0.6 c 0,1.8 0.1,3.9 1.2,4.8 2.6,2.1 7.3,2.1 11,2.1 0.5,0 1.1,0 1.5,0 0.6,0 1.2,0 1.7,0 8.7,0 17,-1.1 24.9,-3.2 17.1,-4.7 32.5,-13.6 44.6,-26 -1,-1.6 -1.7,-3.6 -2.2,-6.1 l -1.5,-7.9 -0.6,0.1 c -5.2,0.5 -10.5,1 -15.4,2.6 -2.1,0.7 -4.2,1.5 -6.2,2.4 -2.9,1.2 -5.8,2.4 -8.9,3.2 h -0.2 -0.2 c -0.7,0 -1.3,-0.4 -1.6,-1.1 -0.3,-0.6 -0.2,-1.4 0.3,-1.9 4.5,-4.9 10.9,-7.2 16.4,-9.2 z"
   id="path48"
   style="fill:#7ebae4;fill-opacity:1" /><path
   fill="#7f5711"
   d="m 440.88625,310.84999 c 0.7,5.5 1.6,10.5 5.3,10.5 0.1,0 0.2,0 0.3,0 3.3,-0.2 7.1,-1.4 11.9,-3.7 3.8,-1.9 8.3,-4.6 9.1,-9.2 0.9,-5.2 -0.3,-10.9 -1.6,-16.3 l -0.2,-0.9 c -0.1,-0.4 -0.2,-0.7 -0.3,-1.1 v -0.1 c -0.7,-0.5 -1.2,-1.3 -1.4,-2.1 -0.2,-0.8 -0.1,-1.7 0.3,-2.5 -1,-3.8 -2.1,-7.3 -3.2,-10.5 -0.8,-2.3 -1.8,-4.7 -2.7,-6.9 -0.5,-1.1 -0.9,-2.2 -1.4,-3.3 -7.2,5.5 -15.9,8.1 -22.5,9.5 0.4,3.5 1.1,7.2 1.8,10.7 0.3,1.6 0.7,3.3 1,5 1.1,6.1 2.2,12.2 3.3,18.2 0,0.7 0.2,1.7 0.3,2.7 z"
   id="path50"
   style="fill:#7ebae4;fill-opacity:1" /><path
   id="path52"
   style="fill:#5277c3;fill-opacity:1"
   d="m 336.78711,44.349609 c -19.49998,0 -38.30041,2.500786 -55.90039,7.300782 -39.89996,10.999989 -73.99963,33.90003 -96.09961,64.499999 -12.09999,16.79998 -20.70157,36.19924 -25.60156,57.69922 -4.2,18.49998 -5.69922,37.59963 -7.19922,56.09961 -0.3,3.89999 -0.6,7.80078 -1,11.80078 10.09999,32.49997 51.30042,35.99961 81.40039,38.59961 l 2.40039,0.20117 c 14.09999,1.2 28.29962,1.79883 42.09961,1.79883 23.99997,0 47.79885,-1.89961 70.79883,-5.59961 1.6,-2 3.8,-3.50039 6.5,-4.40039 4.39999,-1.6 9.10156,-1.89922 13.60156,-2.19922 0.6,0 1.29844,-0.0996 1.89844,-0.0996 5.39999,-0.4 11.9,-0.80156 18.5,-1.10156 2.19999,-0.1 4.3,-0.19883 6.5,-0.29883 7.19999,-0.4 14.60039,-0.80078 21.90039,-0.80078 3.69999,0 7.10078,0.10078 10.30078,0.30078 h 0.0996 c 0.5,-0.6 1.20039,-1.00117 1.90039,-1.20117 7.59999,-2 14.3004,-5.09844 21.40039,-8.39844 2.2,-1 4.49883,-2.10156 6.79883,-3.10156 0.2,-0.1 0.50078,-0.19922 0.80078,-0.19922 1.9,-2.7 3.99961,-5.19961 6.09961,-7.59961 1.2,-1.3 2.20078,-2.60039 3.30078,-3.90039 4.79999,-5.89999 9.1,-11.39922 13,-16.69922 7.39999,-9.99999 14.59844,-20.4004 21.39844,-30.90039 -3.5,-13.09999 -5.09961,-26.5004 -6.59961,-39.40039 -2.9,-24.29998 -6.29884,-45.8008 -18.79883,-63.800781 -13.39999,-19.299981 -35.2008,-28.299616 -54.80078,-34.59961 -28.99997,-9.29999 -57.49925,-14 -84.69922,-14 z m 111.19922,32.701172 c 2.6,0 5.19922,-3.9e-4 7.69922,0.09961 2.59999,0 4,2.19922 4,4.199218 0,2.299998 -1.69844,4 -3.89844,4 h -0.10156 c -1,-0.1 -1.89844,-0.09961 -2.89844,-0.09961 -2.2,-0.1 -4.3,-0.09961 -6.5,-0.09961 -42.09996,0 -86.10122,8.098844 -134.20117,24.798831 -23.49998,8.09999 -46.29963,17.90079 -67.59961,27.30078 -13.49999,5.89999 -27.89963,11.30078 -42.59961,11.30078 -7.59999,0 -14.8004,-1.5 -21.40039,-4.5 -1.1,-0.5 -1.70039,-1.7 -1.40039,-3 0.3,-1.3 1.39961,-2.20117 2.59961,-2.20117 0.4,0 0.7,0.10117 1,0.20117 5.79999,2.4 11.70118,3.59961 18.20117,3.59961 16.29998,0 32.99923,-7.79962 47.69922,-14.59961 l 2,-0.90039 c 23.09997,-10.69999 44.69963,-19.39962 66.09961,-26.59961 46.89995,-15.799985 89.90082,-23.500001 131.30078,-23.500001 z" /><path
   fill="#7f5711"
   d="m 178.78625,333.34999 c 9.4,5.6 19.2,10.2 29.1,13.6 20.8,7.3 43.2,10.8 68.2,10.8 20.8,0 43.5,-2.5 69.2,-7.6 -0.8,-3.5 -0.7,-7.2 -0.7,-10.7 0,-1.3 0,-2.5 0,-3.7 -0.1,-9.8 -0.4,-19.8 -0.6,-29.5 l -0.2,-10 c -0.1,-3.4 -0.2,-7.2 0.4,-10.8 -22.6,3.2 -45.2,4.8 -67.2,4.8 0,0 0,0 0,0 -16.9,0 -33.8,-1 -50.1,-2.9 l -3.6,-0.4 c -17.1,-2 -34.9,-4 -50.3,-11.6 -10.7,-5.3 -19,-12.9 -23.6,-21.6 -0.1,4.2 -0.4,8.4 -0.6,12.5 -0.3,4.7 -0.6,9.6 -0.6,14.3 0,1.3 -0.1,2.6 -0.1,3.9 -0.3,10.1 -0.6,20.5 5.3,28.3 6.5,8.7 16.5,15.3 25.4,20.6 z"
   id="path54"
   style="fill:#7ebae4;fill-opacity:1" /><path
   fill="#441e02"
   d="m 565.98626,178.74999 c -19.6,-11.3 -42.60001,-15.7 -63.20001,-19.4 1.7,13 3.5,26.3 7.2,38.5 0.1,0.2 0.1,0.4 0.1,0.6 6.6,20.9 15.5,49.4 7.6,75.7 -5.5,18.5 -21.4,37.6 -44.6,39.1 -0.4,0.8 -0.8,1.5 -1.2,2.2 -3.5,5 -8.4,7.6 -12.4,9.3 l -0.2,0.1 c -3.8,1.7 -8.2,3.5 -12.6,3.5 -0.7,0 -1.3,0 -2,-0.1 -0.5,-0.1 -1,-0.2 -1.4,-0.3 -1.8,1.9 -3.3,3.4 -4.8,4.8 -15,13.8 -34,23.1 -53.6,26.1 -6.8,1.1 -12.4,1.6 -17.5,1.6 -4.3,0 -8.2,-0.4 -11.8,-1.1 -2.1,-0.4 -3.9,-1.1 -5.4,-1.9 -0.3,0.1 -0.6,0.3 -1,0.3 -5.7,1.2 -10.5,2.1 -14.9,2.8 -20.7,3.5 -39.5,5.3 -57.5,5.3 -30.4,0 -57.9,-5.2 -81.9,-15.4 -10.9,-4.7 -20.7,-10.1 -29.2,-16.1 -8.1,-5.7 -17.2,-12.2 -21.6,-21.5 -4.6,-9.6 -4.2,-21 -3.9,-31.1 0,-0.9 0.1,-1.7 0.1,-2.6 0,-1.3 0.1,-2.7 0.1,-4 0.3,-11.2 0.6,-22.7 3.7,-33.5 0.1,-0.2 0.1,-0.4 0.2,-0.6 0.4,-14.6 1.2,-27.3 2.6,-39 -31.9,17.1 -66.699996,39.4 -87.299996,74.7 -17.5,30 -27.7,75.4 -3.9,113.1 22.1,34.90002 63.299996,50.60002 93.999996,57.60002 23.7,5.4 49,8.2 75.3,8.2 21.5,0 43.6,-1.8 65.7,-5.5 84.7,-13.9 171.5,-54.30002 251.00001,-116.80002 15.7,-12.3 33.3,-27.5 45.3,-46.6 7.3,-11.7 18.9,-35.1 14.2,-60.8 -3.6,-19.5 -16.1,-36.1 -35.2,-47.2 z"
   id="path56"
   style="fill:#5277c3;fill-opacity:1" /><text
   xml:space="preserve"
   style="font-size:333.333px;fill:#7ebae4;fill-opacity:1"
   x="699.95404"
   y="356.11411"
   id="text4007"><tspan
     sodipodi:role="line"
     id="tspan4005"
     x="699.95404"
     y="356.11411"
     style="font-style:normal;font-variant:normal;font-weight:bold;font-stretch:normal;font-size:333.333px;font-family:'Source Sans Pro';-inkscape-font-specification:'Source Sans Pro Bold';fill:#5277c3;fill-opacity:1">Trilby</tspan></text></svg>
