<svg version="1.1" x="0" y="0" xml:space="preserve" xmlns="http://www.w3.org/2000/svg" viewBox="0 0 1600 500"><path fill="#7ebae4" d="M512 267.2c4.3-20.8-.8-41-7.4-61.9a492.2 492.2 0 0 1-32.2 43.2l-2 2.3a75.7 75.7 0 0 1-8 9 100.6 100.6 0 0 1 7 19 36.3 36.3 0 0 1 20.5-9.6h.4c1.4 0 2.7 1.1 2.8 2.5.2 1.4-.7 2.5-2 3a35.3 35.3 0 0 0-19.2 13.4c.8 3.4 1.4 6.7 1.9 9.8.4 2.6.8 5.5.7 8.4 20.9-2.4 34-21.7 37.6-39zM417 305.5c4.4-1.6 9.6-3.3 15.2-4-.4-2.3-1-4.7-1.3-7l-1.1-6.2c-.8-4.9-1.6-9.9-3-14.5-8.7 1.3-17.6 2-26.2 2.4l-7.5.5-5 .3-12 .8-4.5.2c-3.7.2-7.5.3-11 1-5.4 1.1-8.2 3.3-8.8 7.2a55 55 0 0 0-.3 11.5v4.1l.2 7.3c0 8.7.2 17.8.4 26.7v9.9c0 1.8.2 4 1.3 4.8 2.6 2.1 7.3 2.1 11 2.1h3.2a96.5 96.5 0 0 0 69.5-29.2c-1-1.6-1.7-3.6-2.2-6l-1.5-8-.6.1c-5.2.5-10.5 1-15.4 2.6-2.1.7-4.2 1.5-6.2 2.4a67.2 67.2 0 0 1-9 3.2H402c-.7 0-1.3-.4-1.6-1-.3-.7-.2-1.5.3-2 4.5-4.9 10.9-7.2 16.4-9.2zM440.9 310.8c.7 5.5 1.6 10.5 5.3 10.5h.3a33 33 0 0 0 11.9-3.7c3.8-1.9 8.3-4.6 9-9.2 1-5.2-.2-10.9-1.5-16.3l-.2-.9-.3-1v-.2a3.7 3.7 0 0 1-1.1-4.6c-1-3.8-2.1-7.3-3.2-10.5l-2.7-6.9-1.4-3.3a56.5 56.5 0 0 1-22.5 9.5c.4 3.5 1 7.2 1.8 10.7l1 5c1 6.1 2.2 12.2 3.3 18.2l.3 2.7z" fill-opacity="1"/><path d="M336.8 44.3c-19.5 0-38.3 2.6-56 7.4-39.8 11-74 33.9-96 64.5a158 158 0 0 0-25.6 57.6c-4.2 18.5-5.7 37.6-7.2 56.1l-1 11.8c10 32.5 51.3 36 81.4 38.6l2.4.3c14 1.2 28.3 1.7 42 1.7 24 0 47.9-1.9 70.9-5.6 1.6-2 3.8-3.5 6.5-4.4 4.4-1.6 9-1.8 13.6-2.1l1.9-.1c5.4-.4 11.9-.9 18.5-1.2l6.5-.2a397 397 0 0 1 21.9-.9c3.7 0 7 .2 10.3.4.6-.6 1.3-1 2-1.3 7.6-2 14.3-5 21.4-8.3l6.8-3.2.8-.1c1.9-2.7 4-5.2 6-7.6 1.3-1.3 2.3-2.6 3.4-4a605.5 605.5 0 0 0 34.4-47.6 274.6 274.6 0 0 1-6.6-39.3c-3-24.3-6.3-45.9-18.8-63.9-13.4-19.3-35.2-28.3-54.8-34.6a278 278 0 0 0-84.7-14zM448 77.1h7.7c2.6 0 4 2.2 4 4.2 0 2.3-1.7 4-4 4h-3c-2.1-.2-4.2-.1-6.4-.1-42.1 0-86.1 8-134.2 24.7a873.2 873.2 0 0 0-67.6 27.3 108.8 108.8 0 0 1-42.6 11.4c-7.6 0-14.8-1.5-21.4-4.5a2.6 2.6 0 0 1-1.4-3 2.8 2.8 0 0 1 2.6-2.3c.4 0 .7.2 1 .3a46.5 46.5 0 0 0 18.2 3.6c16.3 0 33-7.8 47.7-14.6l2-1a647.7 647.7 0 0 1 66-26.5A408.5 408.5 0 0 1 448 77z" fill="#5277c3" fill-opacity="1"/><path fill="#7ebae4" d="M178.8 333.3c9.4 5.6 19.2 10.2 29 13.6a203.3 203.3 0 0 0 68.3 10.8c20.8 0 43.5-2.5 69.2-7.6-.8-3.5-.7-7.2-.7-10.7v-3.7l-.6-29.5-.2-10c-.1-3.4-.2-7.2.4-10.8a481 481 0 0 1-67.2 4.8 435 435 0 0 1-50.1-2.9l-3.6-.4c-17.1-2-35-4-50.3-11.6a52.6 52.6 0 0 1-23.6-21.6c-.1 4.2-.4 8.4-.6 12.5-.3 4.7-.6 9.6-.6 14.3l-.1 4c-.3 10-.6 20.4 5.3 28.2a86.6 86.6 0 0 0 25.4 20.6z" fill-opacity="1"/><path fill="#5277c3" d="M566 178.7c-19.6-11.3-42.6-15.7-63.2-19.4 1.7 13 3.5 26.3 7.2 38.5v.6c6.7 21 15.6 49.4 7.7 75.7-5.5 18.5-21.4 37.6-44.6 39.1l-1.2 2.2c-3.5 5-8.4 7.6-12.4 9.3l-.2.1a32 32 0 0 1-12.6 3.5h-2l-1.4-.4a103.2 103.2 0 0 1-58.4 30.9 109 109 0 0 1-17.5 1.6c-4.3 0-8.2-.4-11.8-1a19 19 0 0 1-5.4-2c-.3.1-.6.3-1 .3a343.4 343.4 0 0 1-72.4 8.1c-30.4 0-58-5.2-82-15.4a161.6 161.6 0 0 1-29.1-16c-8.1-5.8-17.2-12.3-21.6-21.6-4.6-9.6-4.2-21-4-31l.2-2.7v-4c.4-11.2.7-22.7 3.8-33.5 0-.2 0-.4.2-.6.4-14.6 1.2-27.3 2.6-39-32 17.1-66.7 39.4-87.3 74.7-17.5 30-27.7 75.4-4 113.1 22.2 35 63.4 50.7 94 57.7 23.8 5.4 49 8.2 75.4 8.2a399 399 0 0 0 65.7-5.5c84.7-14 171.5-54.4 251-116.9a191.7 191.7 0 0 0 45.3-46.6c7.3-11.7 18.9-35 14.2-60.8a69.4 69.4 0 0 0-35.2-47.2z" fill-opacity="1"/><g aria-label="Trilby" font-size="333.3" fill="#5277c3" font-weight="700" font-family="Source Sans Pro"><path d="M767.3 356.1H819V182.4h59v-43.3H708.3v43.3h59zM893.6 356.1H945v-94.7c8.6-22 23.6-30 36-30 7.3 0 11 .7 17 2l9.6-43.6a43.2 43.2 0 0 0-20-3.4c-16.6 0-35 10.4-47 32.7h-1.3l-3.7-28.7h-42ZM1028.6 356.1h51.4V190.4h-51.4zm25.7-189c17 0 29-10.3 29-26.7 0-16-12-26.3-29-26.3s-29 10.3-29 26.3c0 16.4 12 26.7 29 26.7zM1169 360.1c11.3 0 20-2 25.6-4.3l-6-38c-2.6.6-4 .6-6 .6-4 0-9.3-3.3-9.3-14V123.1H1122v179.3c0 34.7 11.6 57.7 47 57.7zM1307.3 360.1c35.7 0 69.3-32.7 69.3-89.7 0-51-25-84-65-84a65 65 0 0 0-42.6 17.7l1-25v-56h-51.4v233h40.4l4-17.7h1.3c13 14.4 28 21.7 43 21.7zm-12.3-42.3c-8 0-16.7-2.4-25-9.7v-65.7c9-9.6 17-14 26.6-14 18.4 0 27 13.7 27 42.7 0 33.7-12.6 46.7-28.6 46.7zM1427.6 420.1c39.7 0 57.4-21 73.7-63.7l57-166H1509l-19 68.7c-4.4 15.7-7.7 31.3-11.4 47h-1.3c-4.3-16.3-8-31.7-12.7-47l-22.6-68.7h-51.7l63.7 161-2.4 8c-4 12-12 20.4-28 20.4-3.3 0-5.6-.4-11-1.7l-9 38a60 60 0 0 0 24 4z" style="-inkscape-font-specification:&quot;Source Sans Pro Bold&quot;"/></g></svg>