<svg xmlns="http://www.w3.org/2000/svg" xml:space="preserve" viewBox="0 0 1200 400"><path fill="#7ebae4" d="M361 189c3-15-1-29-6-44a351 351 0 0 1-23 31l-1 2-6 6a72 72 0 0 1 5 13c4-3 9-5 15-6l2 1-1 3c-5 1-10 4-14 9a100 100 0 0 1 2 13c15-2 24-15 27-28zm-68 28c3-2 7-3 11-3l-1-5-1-5-2-10-19 2h-9l-8 1h-4l-7 1c-4 0-6 2-7 5v16l1 19v11l8 1h3a69 69 0 0 0 49-21l-1-4-1-6h-1l-11 2-4 2-7 2h-1v-2c3-3 8-5 12-6zm17 3c0 4 1 8 4 8l8-3c3-1 6-3 7-6 1-4 0-8-1-12v-1h-1l-1-2 1-2-3-7-2-5-1-3c-5 4-11 6-16 7l2 8v3l3 13v2z"/><path fill="#5277c3" d="M236 30a130 130 0 0 0-109 51c-8 12-15 26-18 42-3 13-4 26-5 40l-1 8c7 23 37 26 58 28h2a356 356 0 0 0 80-3l5-3 10-2h1l13-1h5a283 283 0 0 1 23 0l1-1c6-1 11-4 16-6l4-2h1l4-6 3-3a311 311 0 0 0 24-33l-4-29c-2-17-5-32-14-45a72 72 0 0 0-39-25c-21-6-41-10-60-10Zm79 24h5c2 0 3 1 3 3l-2 2h-7c-30 0-62 6-96 18l-48 20c-10 4-20 8-31 8-5 0-10-2-15-4l-1-2 2-1h1l13 2c11 0 23-5 34-10l1-1 47-19c34-11 64-16 94-16z"/><path fill="#7ebae4" d="M123 236a142 142 0 0 0 69 18c15 0 31-2 50-6l-1-7v-39a310 310 0 0 1-84 1h-2c-13-1-25-3-36-8-8-4-14-9-17-15l-1 9v13c0 7 0 14 4 20s12 11 18 14z"/><path fill="#5277c3" d="M399 126c-14-8-30-11-45-14a173 173 0 0 0 5 28c5 15 11 35 6 54-4 13-16 27-32 28l-1 2c-2 3-6 5-9 6l-9 3h-2l-4 3a74 74 0 0 1-59 19l-4-1h-1a217 217 0 0 1-51 6c-22 0-42-4-59-11l-20-12c-6-4-13-9-16-15-3-7-3-15-3-22v-5l3-24 2-28c-23 12-47 28-62 53-13 21-20 54-3 81 16 25 45 36 67 41a242 242 0 0 0 101 2c60-10 122-39 179-84 11-8 24-19 32-33 5-8 14-25 10-43-2-14-11-26-25-34z"/><path fill="#5277c3" d="M672 70H540c-3 0-4 2-4 4v32c0 3 1 4 4 4h40l1 2v187c0 3 2 4 4 4h39c3 0 4-1 4-4V112l2-2h42c2 0 4-1 4-4V74c0-2-2-4-4-4z" font-family="Barlow Condensed" font-size="333.3" font-stretch="condensed" font-weight="700" letter-spacing="-20" style="-inkscape-font-specification:'Barlow Condensed, Bold Condensed'"/><path fill="#5277c3" d="M747 130c-15 0-23 9-28 20-1 2-2 2-2 0v-14c0-2-2-4-4-4h-39c-2 0-4 2-4 4v163c0 2 2 4 4 4h39c2 0 4-2 4-4v-92c0-13 7-25 17-27l9-1 9 1c3 1 4 0 5-3l6-39c0-2 0-3-2-5-3-2-8-3-14-3z" font-family="Barlow Condensed" font-size="333.3" font-stretch="condensed" font-weight="700" letter-spacing="0" style="-inkscape-font-specification:'Barlow Condensed, Bold Condensed'"/><path fill="#5277c3" d="M798 113c16 0 27-12 27-27s-11-26-27-26c-15 0-26 11-26 26s11 27 26 27zm-19 190h39c3 0 4-1 4-4V136c0-2-1-4-4-4h-39c-2 0-4 2-4 4v163c0 3 2 4 4 4zm70 0h39c2 0 4-1 4-4V74c0-2-2-4-4-4h-39c-3 0-4 2-4 4v225c0 3 1 4 4 4z" font-family="Barlow Condensed" font-size="333.3" font-stretch="condensed" font-weight="700" style="-inkscape-font-specification:'Barlow Condensed, Bold Condensed'"/><path fill="#5277c3" d="M993 129c-8 0-19 2-29 12l-2 2-1-1V74c0-2-2-4-4-4h-39c-2 0-4 2-4 4v225c0 3 2 4 4 4h39c2 0 4-1 4-4v-5c0-1 1-2 2-1 10 11 22 13 30 13 32 0 47-22 47-56v-65c0-35-16-56-47-56zm0 60v58c0 11-7 19-16 19-10 0-16-8-16-19v-58c0-12 6-19 16-19 9 0 16 7 16 19z" font-family="Barlow Condensed" font-size="333.3" font-stretch="condensed" font-weight="700" letter-spacing="-10" style="-inkscape-font-specification:'Barlow Condensed, Bold Condensed'"/><path fill="#5277c3" d="M1051 370h2c54 0 65-16 78-60l44-173c0-3-1-5-4-5h-42c-2 0-4 1-4 3l-15 99c0 2-2 2-2 0l-15-99c-1-2-2-3-5-3h-42c-2 0-3 1-3 3v1l42 166v2c-1 23-12 27-33 27-2 0-3 2-3 4v31l2 4z" font-family="Barlow Condensed" font-size="333.3" font-stretch="condensed" font-weight="700" style="-inkscape-font-specification:'Barlow Condensed, Bold Condensed'"/></svg>